#N canvas 803 361 653 411 10;
#X obj 207 115 soundfiler;
#N canvas 8 50 450 300 sound 0;
#N canvas 0 50 450 300 (subpatch) 0;
#X array sound 664192 float 0;
#X coords 0 1 664191 -1 300 100 1 0 0;
#X restore 72 85 graph;
#X restore 368 159 pd sound;
#X msg 207 66 read -resize ../waveplayer/sounds/bell.wav sound;
#X obj 89 331 dac~;
#X obj 90 281 tabplay4~ sound;
#X floatatom 72 63 5 0 0 0 - - -, f 5;
#X obj 72 89 sig~ 1;
#X msg 217 243 loopend \$1;
#X obj 229 194 * 44.1;
#X obj 134 199 * 44.1;
#X floatatom 234 169 5 0 0 0 - - -, f 5;
#X floatatom 131 165 5 0 0 0 - - -, f 5;
#X msg 106 237 loopstart \$1;
#X connect 2 0 0 0;
#X connect 4 0 3 0;
#X connect 4 0 3 1;
#X connect 5 0 6 0;
#X connect 6 0 4 0;
#X connect 7 0 4 0;
#X connect 8 0 7 0;
#X connect 9 0 12 0;
#X connect 10 0 8 0;
#X connect 11 0 9 0;
#X connect 12 0 4 0;
